<?xml version="1.0" encoding="UTF-8" standalone="no"?>
<!-- Created with Inkscape (http://www.inkscape.org/) -->

<svg
   version="1.1"
   id="svg2"
   xml:space="preserve"
   width="1333.3333"
   height="600"
   viewBox="300 630 800 50"
   sodipodi:docname="EntreViable Final Logo 3 Apr 2022.ai"
   xmlns:inkscape="http://www.inkscape.org/namespaces/inkscape"
   xmlns:sodipodi="http://sodipodi.sourceforge.net/DTD/sodipodi-0.dtd"
   xmlns="http://www.w3.org/2000/svg"
   xmlns:svg="http://www.w3.org/2000/svg"><defs
     id="defs6"><clipPath
       clipPathUnits="userSpaceOnUse"
       id="clipPath16"><path
         d="M 0,1000 H 1000 V 0 H 0 Z"
         id="path14" /></clipPath><linearGradient
       x1="0"
       y1="0"
       x2="1"
       y2="0"
       gradientUnits="userSpaceOnUse"
       gradientTransform="matrix(-255.31914,-325.78723,-325.78723,255.31914,427.03622,694.41681)"
       spreadMethod="pad"
       id="linearGradient84"><stop
         style="stop-opacity:1;stop-color:#be1c23"
         offset="0"
         id="stop76" /><stop
         style="stop-opacity:1;stop-color:#be1c23"
         offset="0.340782"
         id="stop78" /><stop
         style="stop-opacity:1;stop-color:#252d5f"
         offset="0.675978"
         id="stop80" /><stop
         style="stop-opacity:1;stop-color:#252d5f"
         offset="1"
         id="stop82" /></linearGradient><linearGradient
       x1="0"
       y1="0"
       x2="1"
       y2="0"
       gradientUnits="userSpaceOnUse"
       gradientTransform="matrix(-255.31914,-325.78723,-325.78723,255.31914,409.71579,707.99084)"
       spreadMethod="pad"
       id="linearGradient108"><stop
         style="stop-opacity:1;stop-color:#be1c23"
         offset="0"
         id="stop100" /><stop
         style="stop-opacity:1;stop-color:#be1c23"
         offset="0.340782"
         id="stop102" /><stop
         style="stop-opacity:1;stop-color:#252d5f"
         offset="0.675978"
         id="stop104" /><stop
         style="stop-opacity:1;stop-color:#252d5f"
         offset="1"
         id="stop106" /></linearGradient><linearGradient
       x1="0"
       y1="0"
       x2="1"
       y2="0"
       gradientUnits="userSpaceOnUse"
       gradientTransform="matrix(-255.31914,-325.78723,-325.78723,255.31914,392.84927,721.20911)"
       spreadMethod="pad"
       id="linearGradient132"><stop
         style="stop-opacity:1;stop-color:#be1c23"
         offset="0"
         id="stop124" /><stop
         style="stop-opacity:1;stop-color:#be1c23"
         offset="0.340782"
         id="stop126" /><stop
         style="stop-opacity:1;stop-color:#252d5f"
         offset="0.675978"
         id="stop128" /><stop
         style="stop-opacity:1;stop-color:#252d5f"
         offset="1"
         id="stop130" /></linearGradient><linearGradient
       x1="0"
       y1="0"
       x2="1"
       y2="0"
       gradientUnits="userSpaceOnUse"
       gradientTransform="matrix(-255.31914,-325.78723,-325.78723,255.31914,424.34891,696.52289)"
       spreadMethod="pad"
       id="linearGradient156"><stop
         style="stop-opacity:1;stop-color:#be1c23"
         offset="0"
         id="stop148" /><stop
         style="stop-opacity:1;stop-color:#be1c23"
         offset="0.340782"
         id="stop150" /><stop
         style="stop-opacity:1;stop-color:#252d5f"
         offset="0.675978"
         id="stop152" /><stop
         style="stop-opacity:1;stop-color:#252d5f"
         offset="1"
         id="stop154" /></linearGradient><linearGradient
       x1="0"
       y1="0"
       x2="1"
       y2="0"
       gradientUnits="userSpaceOnUse"
       gradientTransform="matrix(-255.31914,-325.78723,-325.78723,255.31914,441.35345,683.19641)"
       spreadMethod="pad"
       id="linearGradient180"><stop
         style="stop-opacity:1;stop-color:#be1c23"
         offset="0"
         id="stop172" /><stop
         style="stop-opacity:1;stop-color:#be1c23"
         offset="0.340782"
         id="stop174" /><stop
         style="stop-opacity:1;stop-color:#252d5f"
         offset="0.675978"
         id="stop176" /><stop
         style="stop-opacity:1;stop-color:#252d5f"
         offset="1"
         id="stop178" /></linearGradient><linearGradient
       x1="0"
       y1="0"
       x2="1"
       y2="0"
       gradientUnits="userSpaceOnUse"
       gradientTransform="matrix(-255.31914,-325.78723,-325.78723,255.31914,458.5303,669.73492)"
       spreadMethod="pad"
       id="linearGradient204"><stop
         style="stop-opacity:1;stop-color:#be1c23"
         offset="0"
         id="stop196" /><stop
         style="stop-opacity:1;stop-color:#be1c23"
         offset="0.340782"
         id="stop198" /><stop
         style="stop-opacity:1;stop-color:#252d5f"
         offset="0.675978"
         id="stop200" /><stop
         style="stop-opacity:1;stop-color:#252d5f"
         offset="1"
         id="stop202" /></linearGradient><linearGradient
       x1="0"
       y1="0"
       x2="1"
       y2="0"
       gradientUnits="userSpaceOnUse"
       gradientTransform="matrix(-255.31914,-325.78723,-325.78723,255.31914,491.13016,644.18646)"
       spreadMethod="pad"
       id="linearGradient228"><stop
         style="stop-opacity:1;stop-color:#be1c23"
         offset="0"
         id="stop220" /><stop
         style="stop-opacity:1;stop-color:#be1c23"
         offset="0.340782"
         id="stop222" /><stop
         style="stop-opacity:1;stop-color:#252d5f"
         offset="0.675978"
         id="stop224" /><stop
         style="stop-opacity:1;stop-color:#252d5f"
         offset="1"
         id="stop226" /></linearGradient><linearGradient
       x1="0"
       y1="0"
       x2="1"
       y2="0"
       gradientUnits="userSpaceOnUse"
       gradientTransform="matrix(-255.31914,-325.78723,-325.78723,255.31914,474.0788,657.54962)"
       spreadMethod="pad"
       id="linearGradient252"><stop
         style="stop-opacity:1;stop-color:#be1c23"
         offset="0"
         id="stop244" /><stop
         style="stop-opacity:1;stop-color:#be1c23"
         offset="0.340782"
         id="stop246" /><stop
         style="stop-opacity:1;stop-color:#252d5f"
         offset="0.675978"
         id="stop248" /><stop
         style="stop-opacity:1;stop-color:#252d5f"
         offset="1"
         id="stop250" /></linearGradient><linearGradient
       x1="0"
       y1="0"
       x2="1"
       y2="0"
       gradientUnits="userSpaceOnUse"
       gradientTransform="matrix(-255.31914,-325.78723,-325.78723,255.31914,456.94327,670.9787)"
       spreadMethod="pad"
       id="linearGradient276"><stop
         style="stop-opacity:1;stop-color:#be1c23"
         offset="0"
         id="stop268" /><stop
         style="stop-opacity:1;stop-color:#be1c23"
         offset="0.340782"
         id="stop270" /><stop
         style="stop-opacity:1;stop-color:#252d5f"
         offset="0.675978"
         id="stop272" /><stop
         style="stop-opacity:1;stop-color:#252d5f"
         offset="1"
         id="stop274" /></linearGradient><clipPath
       clipPathUnits="userSpaceOnUse"
       id="clipPath286"><path
         d="M 0,1000 H 1000 V 0 H 0 Z"
         id="path284" /></clipPath><linearGradient
       x1="0"
       y1="0"
       x2="1"
       y2="0"
       gradientUnits="userSpaceOnUse"
       gradientTransform="matrix(404.48,0,0,404.48,-2e-4,1000.0001)"
       spreadMethod="pad"
       id="linearGradient298"><stop
         style="stop-opacity:1;stop-color:#be1c23"
         offset="0"
         id="stop290" /><stop
         style="stop-opacity:1;stop-color:#be1c23"
         offset="0.340782"
         id="stop292" /><stop
         style="stop-opacity:1;stop-color:#252d5f"
         offset="0.675978"
         id="stop294" /><stop
         style="stop-opacity:1;stop-color:#252d5f"
         offset="1"
         id="stop296" /></linearGradient></defs><sodipodi:namedview
     id="namedview4"
     pagecolor="#ffffff"
     bordercolor="#666666"
     borderopacity="1.0"
     inkscape:pageshadow="2"
     inkscape:pageopacity="0.0"
     inkscape:pagecheckerboard="0" /><g
     id="g8"
     inkscape:groupmode="layer"
     inkscape:label="EntreViable Final Logo 3 Apr 2022"
     transform="matrix(1.3333333,0,0,-1.3333333,0,1333.3333)"><g
       id="g10"><g
         id="g12"
         clip-path="url(#clipPath16)"><g
           id="g18"
           transform="translate(388.5644,584.5904)"><path
             d="M 0,0 V -9.385 H 33.483 V -27.922 H 0 v -9.384 c 0,-2.665 0.579,-3.476 3.36,-3.476 H 39.276 V -59.203 H -8.689 c -10.08,0 -13.324,4.75 -13.324,14.134 V 7.647 c 0,9.5 3.244,14.251 13.324,14.251 H 39.276 V 3.476 H 3.36 C 0.579,3.476 0,2.549 0,0"
             style="fill:#be1c23;fill-opacity:1;fill-rule:nonzero;stroke:none"
             id="path20" /></g><g
           id="g22"
           transform="translate(518.9904,606.4879)"><path
             d="m 0,0 v -81.101 h -15.525 c -10.196,0 -14.714,2.317 -19.348,11.702 l -17.031,33.946 V -81.101 H -73.918 V 0 h 15.178 c 11.47,0 15.177,-3.36 19.464,-12.049 l 17.263,-34.526 V 0 Z"
             style="fill:#be1c23;fill-opacity:1;fill-rule:nonzero;stroke:none"
             id="path24" /></g><g
           id="g26"
           transform="translate(608.5458,606.6036)"><path
             d="m 0,0 v -18.421 h -23.659 v -62.68 h -22.013 v 62.68 H -73.159 V 0 Z"
             style="fill:#be1c23;fill-opacity:1;fill-rule:nonzero;stroke:none"
             id="path28" /></g><g
           id="g30"
           transform="translate(670.9008,576.5964)"><path
             d="M 0,0 C 0,7.994 -3.244,11.47 -8.805,11.47 H -23.751 V -10.775 H -8.805 C -3.592,-10.775 0,-7.994 0,0 m 25.257,-51.21 c -4.518,-0.811 -8.342,-1.274 -11.586,-1.274 -12.281,0 -16.915,5.909 -23.867,17.147 l -3.707,6.025 h -9.848 V -51.21 H -45.764 V 29.891 H -0.695 C 17.378,29.775 22.94,12.86 22.94,0.116 22.94,-10.196 19.232,-23.172 8.11,-27.69 Z"
             style="fill:#be1c23;fill-opacity:1;fill-rule:nonzero;stroke:none"
             id="path32" /></g><g
           id="g34"
           transform="translate(732.4426,584.5904)"><path
             d="M 0,0 V -9.385 H 33.483 V -27.922 H 0 v -9.384 c 0,-2.549 0.579,-3.476 3.36,-3.476 H 39.276 V -59.203 H -8.689 c -10.08,0 -13.324,4.75 -13.324,14.134 V 7.647 c 0,9.5 3.244,14.251 13.324,14.251 H 39.276 V 3.476 H 3.36 C 0.579,3.476 0,2.549 0,0"
             style="fill:#be1c23;fill-opacity:1;fill-rule:nonzero;stroke:none"
             id="path36" /></g><g
           id="g38"
           transform="translate(443.9447,511.3072)"><path
             d="m 0,0 -24.562,-59.088 c -7.415,-17.842 -12.281,-22.013 -31.05,-22.013 H -77.393 V 0 h 21.781 v -61.173 c 5.098,0.579 8.921,4.055 13.092,14.25 L -23.519,0 Z"
             style="fill:#252d5f;fill-opacity:1;fill-rule:nonzero;stroke:none"
             id="path40" /></g><path
           d="m 450.895,511.307 h 22.013 v -81.101 h -22.013 z"
           style="fill:#252d5f;fill-opacity:1;fill-rule:nonzero;stroke:none"
           id="path42" /><g
           id="g44"
           transform="translate(535.5879,492.7698)"><path
             d="m 0,0 c -4.866,-0.811 -7.531,-5.445 -11.702,-15.641 l -6.024,-15.062 H 0 Z M 21.781,18.537 V -62.564 H 0 v 13.44 h -25.257 l -5.446,-13.44 h -24.909 l 24.446,59.088 C -23.751,14.367 -18.769,18.537 0,18.537 Z"
             style="fill:#252d5f;fill-opacity:1;fill-rule:nonzero;stroke:none"
             id="path46" /></g><g
           id="g48"
           transform="translate(615.2983,456.5063)"><path
             d="M 0,0 C 0,4.75 -2.896,6.836 -6.488,7.183 H -22.245 V -7.879 H -7.299 C -3.476,-7.879 0,-5.214 0,0 m -22.245,24.214 h 11.007 c 3.939,0 7.299,0.927 7.299,6.141 0,5.097 -3.36,6.024 -7.299,6.024 H -22.245 Z M 21.55,-3.707 C 21.55,-14.83 14.714,-26.3 1.391,-26.3 h -45.649 v 81.101 h 41.709 c 13.44,0 20.16,-10.08 20.16,-21.086 0,-8.226 -2.781,-14.019 -8.922,-17.379 C 17.495,13.092 21.55,6.024 21.55,-3.707"
             style="fill:#252d5f;fill-opacity:1;fill-rule:nonzero;stroke:none"
             id="path50" /></g><g
           id="g52"
           transform="translate(703.0027,448.6275)"><path
             d="m 0,0 v -18.421 h -42.172 c -10.08,0 -13.324,4.75 -13.324,14.135 V 62.68 h 22.013 V 3.476 c 0,-2.549 0.579,-3.476 3.36,-3.476 z"
             style="fill:#252d5f;fill-opacity:1;fill-rule:nonzero;stroke:none"
             id="path54" /></g><g
           id="g56"
           transform="translate(732.7785,489.4097)"><path
             d="M 0,0 V -9.385 H 33.483 V -27.922 H 0 v -9.384 c 0,-2.549 0.579,-3.476 3.36,-3.476 H 39.276 V -59.203 H -8.689 c -10.08,0 -13.324,4.75 -13.324,14.134 V 7.647 c 0,9.5 3.244,14.25 13.324,14.25 H 39.276 V 3.476 H 3.36 C 0.579,3.476 0,2.549 0,0"
             style="fill:#252d5f;fill-opacity:1;fill-rule:nonzero;stroke:none"
             id="path58" /></g></g></g><text
       transform="matrix(1,0,0,-1,365.7856,399.0264)"
       style="font-variant:normal;font-weight:bold;font-stretch:normal;font-size:17.629px;font-family:'Gill Sans MT';-inkscape-font-specification:GillSansMT-Bold;writing-mode:lr-tb;fill:#252d5f;fill-opacity:1;fill-rule:nonzero;stroke:none"
       id="text62"><tspan
         x="0 20.27335 34.658615 45.553337 57.188477 68.083199 72.684364 83.579086 98.158272 110.53383 122.16897 133.06369 144.32863 155.96376 166.85849 181.43767 192.3324 206.54137 218.1765 228.52473 242.90999 248.48076 259.7457 264.34686 269.91763 280.26584 284.867 300.16898 315.29468 326.92981 337.82452 341.10529 353.48083 359.05161 372.52017 384.52551 395.06766"
         y="0"
         sodipodi:role="line"
         id="tspan60">WHERE ENTREPRENEURSHIP IS MORE VIABLE</tspan></text><g
       id="g64"><g
         id="g66"><g
           id="g72"><g
             id="g74"><path
               d="m 319.18,597.356 0.454,-42.874 c 11.941,4.594 23.859,8.006 35.8,8.006 v 0 43.033 c -12.077,0 -24.177,-3.502 -36.254,-8.165"
               style="fill:url(#linearGradient84);stroke:none"
               id="path86" /></g></g></g></g><g
       id="g88"><g
         id="g90"><g
           id="g96"><g
             id="g98"><path
               d="m 282.264,581.89 0.432,-42.852 c 11.555,4.481 23.11,10.008 34.664,14.58 v 0 l -0.432,42.851 c -11.555,-4.595 -23.11,-10.144 -34.664,-14.579"
               style="fill:url(#linearGradient108);stroke:none"
               id="path110" /></g></g></g></g><g
       id="g112"><g
         id="g114"><g
           id="g120"><g
             id="g122"><path
               d="M 246.373,573.861 V 530.85 c 11.35,0 22.699,3.094 34.049,7.346 v 0 l -0.432,42.852 c -11.213,-4.185 -22.404,-7.187 -33.617,-7.187"
               style="fill:url(#linearGradient132);stroke:none"
               id="path134" /></g></g></g></g><g
       id="g136"><g
         id="g138"><g
           id="g144"><g
             id="g146"><path
               d="m 246.373,509.288 v -43.011 c 11.578,0 23.131,3.208 34.709,7.575 v 0 0.022 l -0.432,42.829 c -11.419,-4.276 -22.859,-7.415 -34.277,-7.415"
               style="fill:url(#linearGradient156);stroke:none"
               id="path158" /></g></g></g></g><g
       id="g160"><g
         id="g162"><g
           id="g168"><g
             id="g170"><path
               d="m 282.924,517.568 0.432,-42.852 c 11.555,4.526 23.108,10.053 34.664,14.58 v 0 l -0.433,42.851 c -11.555,-4.549 -23.109,-10.099 -34.663,-14.579"
               style="fill:url(#linearGradient180);stroke:none"
               id="path182" /></g></g></g></g><g
       id="g184"><g
         id="g186"><g
           id="g192"><g
             id="g194"><path
               d="m 319.839,533.034 0.432,-42.874 c 11.714,4.457 23.45,7.756 35.163,7.756 v 0 43.033 c -11.873,0 -23.722,-3.366 -35.595,-7.915"
               style="fill:url(#linearGradient204);stroke:none"
               id="path206" /></g></g></g></g><g
       id="g208"><g
         id="g210"><g
           id="g216"><g
             id="g218"><path
               d="m 320.521,466.437 0.432,-42.851 c 11.486,4.343 22.995,7.505 34.481,7.505 v 0 43.011 c -11.645,0 -23.267,-3.253 -34.913,-7.665"
               style="fill:url(#linearGradient228);stroke:none"
               id="path230" /></g></g></g></g><g
       id="g232"><g
         id="g234"><g
           id="g240"><g
             id="g242"><path
               d="m 283.584,451.016 v -0.023 l 0.454,-42.851 c 11.555,4.548 23.086,10.099 34.641,14.579 v 0 0.023 l -0.433,42.829 c -11.554,-4.526 -23.108,-10.054 -34.662,-14.557"
               style="fill:url(#linearGradient252);stroke:none"
               id="path254" /></g></g></g></g><g
       id="g256"><g
         id="g258"><g
           id="g264"><g
             id="g266"><path
               d="m 246.373,442.463 v -43.032 c 11.805,0 23.587,3.343 35.391,7.847 v 0 l -0.432,42.851 c -11.645,-4.413 -23.314,-7.666 -34.959,-7.666"
               style="fill:url(#linearGradient276);stroke:none"
               id="path278" /></g></g></g></g><g
       id="g280"><g
         id="g282"
         clip-path="url(#clipPath286)"><g
           id="g288"
           transform="translate(366.5512,421.0001)"><path
             d="M 0,0 H 404.48"
             style="fill:none;stroke:url(#linearGradient298);stroke-width:1.999;stroke-linecap:butt;stroke-linejoin:miter;stroke-miterlimit:10;stroke-dasharray:none;stroke-opacity:1"
             id="path300" /></g></g></g></g></svg>
